<svg width="700" height="700" viewBox="0 0 700 700" fill="none" xmlns="http://www.w3.org/2000/svg">
<path fill-rule="evenodd" clip-rule="evenodd" d="M350 700C543.3 700 700 543.3 700 350C700 156.7 543.3 0 350 0C156.7 0 0 156.7 0 350C0 543.3 156.7 700 350 700ZM495.859 447.941C500.703 436.848 503.125 425.053 503.125 412.556V196.875H442.003V412.556C442.003 416.768 441.148 420.77 439.439 424.562C437.871 428.212 435.663 431.442 432.814 434.25C430.107 436.918 426.901 439.025 423.197 440.569C419.492 442.114 415.503 442.886 411.229 442.886C406.954 442.886 402.965 442.114 399.261 440.569C395.556 439.025 392.279 436.918 389.43 434.25C386.723 431.442 384.586 428.212 383.019 424.562C381.451 420.77 380.668 416.768 380.668 412.556V196.875H319.332V412.556C319.332 416.768 318.549 420.77 316.981 424.562C315.414 428.212 313.206 431.442 310.356 434.25C307.649 436.918 304.444 439.025 300.739 440.569C297.035 442.114 293.046 442.886 288.771 442.886C284.497 442.886 280.508 442.114 276.803 440.569C273.099 439.025 269.822 436.918 266.973 434.25C264.266 431.442 262.129 428.212 260.561 424.562C258.994 420.77 258.21 416.768 258.21 412.556V196.875H196.875V412.556C196.875 425.053 199.226 436.848 203.928 447.941C208.772 458.894 215.326 468.512 223.589 476.797C231.995 484.941 241.755 491.4 252.868 496.174C264.123 500.808 276.091 503.125 288.771 503.125C300.169 503.125 311.14 501.159 321.683 497.227C332.226 493.296 341.701 487.539 350.107 479.956C358.513 487.539 367.916 493.296 378.317 497.227C388.86 501.159 399.831 503.125 411.229 503.125C423.909 503.125 435.806 500.808 446.919 496.174C458.174 491.4 467.934 484.941 476.197 476.797C484.603 468.512 491.157 458.894 495.859 447.941Z" fill="black"/>
</svg>
