<svg width="64" height="64" viewBox="0 0 64 64" fill="none" xmlns="http://www.w3.org/2000/svg">
<path fill-rule="evenodd" clip-rule="evenodd" d="M32 64C49.6731 64 64 49.6731 64 32C64 14.3269 49.6731 0 32 0C14.3269 0 0 14.3269 0 32C0 49.6731 14.3269 64 32 64ZM45.3357 40.9546C45.7786 39.9404 46 38.862 46 37.7194V18H40.4117V37.7194C40.4117 38.1045 40.3336 38.4704 40.1772 38.8171C40.034 39.1508 39.8321 39.4461 39.5715 39.7029C39.324 39.9468 39.0309 40.1394 38.6923 40.2806C38.3536 40.4218 37.9888 40.4924 37.598 40.4924C37.2073 40.4924 36.8425 40.4218 36.5038 40.2806C36.1652 40.1394 35.8656 39.9468 35.605 39.7029C35.3575 39.4461 35.1621 39.1508 35.0188 38.8171C34.8756 38.4704 34.8039 38.1045 34.8039 37.7194V18H29.1961V37.7194C29.1961 38.1045 29.1244 38.4704 28.9812 38.8171C28.8379 39.1508 28.636 39.4461 28.3754 39.7029C28.1279 39.9468 27.8348 40.1394 27.4962 40.2806C27.1575 40.4218 26.7927 40.4924 26.402 40.4924C26.0112 40.4924 25.6464 40.4218 25.3077 40.2806C24.9691 40.1394 24.6695 39.9468 24.4089 39.7029C24.1614 39.4461 23.966 39.1508 23.8228 38.8171C23.6795 38.4704 23.6078 38.1045 23.6078 37.7194V18H18V37.7194C18 38.862 18.2149 39.9404 18.6448 40.9546C19.0877 41.956 19.6869 42.8354 20.4424 43.5928C21.211 44.3375 22.1033 44.928 23.1193 45.3645C24.1484 45.7882 25.2426 46 26.402 46C27.4441 46 28.4471 45.8203 29.411 45.4608C30.375 45.1013 31.2412 44.575 32.0098 43.8817C32.7783 44.575 33.6381 45.1013 34.589 45.4608C35.5529 45.8203 36.5559 46 37.598 46C38.7574 46 39.8451 45.7882 40.8611 45.3645C41.8902 44.928 42.7825 44.3375 43.538 43.5928C44.3066 42.8354 44.9058 41.956 45.3357 40.9546Z" fill="black"/>
</svg>
