<svg width="64" height="64" viewBox="0 0 64 64" fill="none" xmlns="http://www.w3.org/2000/svg">
<circle cx="32" cy="32" r="32" fill="black"/>
<path d="M46 37.7194C46 38.862 45.7786 39.9404 45.3357 40.9546C44.9058 41.956 44.3066 42.8354 43.538 43.5928C42.7825 44.3375 41.8902 44.928 40.8611 45.3645C39.8451 45.7882 38.7574 46 37.598 46C36.5559 46 35.5529 45.8203 34.589 45.4608C33.6381 45.1013 32.7783 44.575 32.0098 43.8817C31.2412 44.575 30.375 45.1013 29.411 45.4608C28.4471 45.8203 27.4441 46 26.402 46C25.2426 46 24.1484 45.7882 23.1193 45.3645C22.1033 44.928 21.211 44.3375 20.4424 43.5928C19.6869 42.8354 19.0877 41.956 18.6448 40.9546C18.2149 39.9404 18 38.862 18 37.7194V18H23.6078V37.7194C23.6078 38.1045 23.6795 38.4704 23.8227 38.8171C23.966 39.1508 24.1614 39.4461 24.4089 39.7029C24.6695 39.9468 24.9691 40.1394 25.3077 40.2806C25.6464 40.4218 26.0112 40.4924 26.402 40.4924C26.7927 40.4924 27.1575 40.4218 27.4962 40.2806C27.8348 40.1394 28.1279 39.9468 28.3754 39.7029C28.636 39.4461 28.8379 39.1508 28.9812 38.8171C29.1244 38.4704 29.1961 38.1045 29.1961 37.7194V18H34.8039V37.7194C34.8039 38.1045 34.8756 38.4704 35.0188 38.8171C35.1621 39.1508 35.3575 39.4461 35.605 39.7029C35.8655 39.9468 36.1652 40.1394 36.5038 40.2806C36.8425 40.4218 37.2073 40.4924 37.598 40.4924C37.9888 40.4924 38.3536 40.4218 38.6923 40.2806C39.0309 40.1394 39.324 39.9468 39.5715 39.7029C39.8321 39.4461 40.034 39.1508 40.1772 38.8171C40.3336 38.4704 40.4117 38.1045 40.4117 37.7194V18H46V37.7194Z" fill="white"/>
<circle cx="48" cy="43" r="3" fill="#595959"/>
</svg>
